# AST/ASF file generated using VICON BodyLanguage
# -----------------------------------------------
:version 1.10
:name VICON
:units
  mass 1.0
  length 0.45
  angle deg
:documentation
   .ast/.asf automatically generated from VICON data using
   VICON BodyBuilder and BodyLanguage model FoxedUp or BRILLIANT.MOD
:root
   order TX TY TZ RX RY RZ
   axis XYZ
   position 0 0 0  
   orientation 0 0 0 
:bonedata
  begin
     id 1 
     name lhipjoint
     direction 0.567725 -0.736092 0.368589 
     length 2.42353 
     axis 0 0 0  XYZ
  end
  begin
     id 2 
     name lfemur
     direction 0.34202 -0.939693 0  
     length 7.24894  
     axis 0 0 20  XYZ
    dof rx ry rz
    limits (-160.0 20.0)
           (-70.0 70.0)
           (-60.0 70.0)
  end
  begin
     id 3 
     name ltibia
     direction 0.34202 -0.939693 0   
     length 7.6997   
     axis 0 0 20   XYZ
    dof rx
    limits (-10.0 170.0)
  end
  begin
     id 4 
     name lfoot
     direction 0.100767 -0.276854 0.955614   
     length 2.37556   
     axis -90 7.62852e-016 20   XYZ
    dof rx rz
    limits (-45.0 90.0)
           (-70.0 20.0)
  end
  begin
     id 5 
     name ltoes
     direction 1.53592e-011 -4.21894e-011 1   
     length 1.18363   
     axis -90 7.62852e-016 20   XYZ
    dof rx
    limits (-90.0 20.0)
  end
  begin
     id 6 
     name rhipjoint
     direction -0.556459 -0.742938 0.372017   
     length 2.4012  
     axis 0 0 0  XYZ 
  end
  begin
     id 7 
     name rfemur
     direction -0.34202 -0.939693 0   
     length 7.5119   
     axis 0 0 -20   XYZ
    dof rx ry rz
    limits (-160.0 20.0)
           (-70.0 70.0)
           (-70.0 60.0)
  end
  begin
     id 8 
     name rtibia
     direction -0.34202 -0.939693 0   
     length 7.50155   
     axis 0 0 -20   XYZ
    dof rx
    limits (-10.0 170.0)
 end
 begin
     id 9 
     name rfoot
     direction -0.118427 -0.325376 0.938139   
     length 2.32487  
     axis -90 -7.62852e-016 -20   XYZ
    dof rx rz
    limits (-45.0 90.0)
           (-20.0 70.0)
  end
  begin
     id 10 
     name rtoes
     direction -1.53525e-011 -4.21868e-011 1   
     length 1.15233   
     axis -90 -7.62852e-016 -20   XYZ
    dof rx
    limits (-90.0 20.0)
  end
  begin
     id 11 
     name lowerback
     direction 0.0287568 0.999577 -0.00434502   
     length 2.15243   
     axis 0 0 0   XYZ
    dof rx ry rz
    limits (-20.0 45.0)
           (-30.0 30.0)
           (-30.0 30.0)
  end
  begin
     id 12 
     name upperback
     direction 0.0294009 0.99956 0.00404628   
     length 2.15427   
     axis 0 0 0   XYZ
    dof rx ry rz
    limits (-20.0 45.0)
           (-30.0 30.0)
           (-30.0 30.0)
  end
  begin
     id 13 
     name thorax
     direction 0.0151014 0.999868 0.0059419   
     length 2.14898   
     axis 0 0 0   XYZ
    dof rx ry rz
    limits (-20.0 45.0)
           (-30.0 30.0)
           (-30.0 30.0)
  end
  begin
     id 14 
     name lowerneck
     direction -0.0249197 0.989906 0.139515   
     length 1.6861   
     axis 0 0 0   XYZ
    dof rx ry rz
    limits (-20.0 45.0)
           (-30.0 30.0)
           (-30.0 30.0)
  end
  begin
     id 15 
     name upperneck
     direction 0.0438463 0.988795 -0.142693   
     length 1.71276   
     axis 0 0 0   XYZ
    dof rx ry rz
    limits (-20.0 45.0)
           (-30.0 30.0)
           (-30.0 30.0)
  end
  begin
     id 16
     name head
     direction 0.0148499 0.997845 -0.0639186  
     length 1.7209  
     axis 0 0 0   XYZ
    dof rx ry rz
    limits (-20.0 45.0)
           (-30.0 30.0)
           (-30.0 30.0)
  end
  begin
     id 17 
     name lclavicle
     direction 0.940298 0.323464 -0.105876  
     length 3.9048  
     axis 0 0 0   XYZ
    dof ry rz
    limits (-20.0 10.0)
           (0.0 20.0)
  end
  begin
     id 18 
     name lhumerus
     direction 1 -4.48954e-011 -4.9675e-028   
     length 4.6851   
     axis 180 -30 -90   XYZ
    dof rx ry rz
    limits (-60.0 90.0)
           (-90.0 90.0)
           (-90.0 90.0)
  end
  begin
     id 19
     name lradius
     direction 1 -4.48992e-011 -1.03359e-026   
     length 3.39626   
     axis 180 -30 -90   XYZ
    dof rx
    limits (-10.0 170.0)
  end
  begin
     id 20
     name lwrist
     direction 1 -4.48906e-011 -1.67336e-026   
     length 1.69813   
     axis 9.90442e-015 90 90   XYZ
    dof ry
    limits (-180.0 0.0)
 end
  begin
     id 21 
     name lhand
     direction 1 -4.49006e-011 -3.34673e-026   
     length 0.486078   
     axis 2.1355e-014 90 90   XYZ
    dof rx rz
    limits (-90.0 90.0)
           (-45.0 45.0)
  end
  begin
     id 22 
     name lfingers
     direction 1 -4.48992e-011 -6.69345e-026   
     length 0.391889   
     axis 4.27099e-014 90 90   XYZ
    dof rx
    limits (0.0 90.0)
  end
  begin
     id 23
     name lthumb
     direction 0.707107 -6.34926e-011 0.707107   
     length 0.562676   
     axis -90 45 2.85299e-015   XYZ
    dof rx rz
    limits (-45.0 45.0)
           (-45.0 45.0)
  end
  begin
     id 24 
     name rclavicle
     direction -0.882459 0.414895 -0.221648   
     length 3.44646  
     axis 0 0 0   XYZ 
    dof ry rz
    limits (-10.0 20.0)
           (-20.0 0.0)
  end
  begin
     id 25 
     name rhumerus
     direction -1 -4.48962e-011 -2.37984e-027  
     length 5.55576   
     axis 180 30 90   XYZ
    dof rx ry rz
    limits (-90.0 60.0)
           (-90.0 90.0)
           (-90.0 90.0)
  end
  begin
     id 26 
     name rradius
     direction -1 -4.48982e-011 -6.86791e-027   
     length 3.32774   
     axis 180 30 90   XYZ
    dof rx
    limits (-10.0 170.0)
  end
  begin
     id 27 
     name rwrist
     direction -1 -4.48961e-011 -1.67336e-026   
     length 1.66387   
     axis 9.90442e-015 -90 -90   XYZ
    dof ry
    limits (-180.0 0.0)
  end
  begin
     id 28
     name rhand
     direction -1 -4.4897e-011 -3.34673e-026   
     length 0.507628   
     axis 2.1355e-014 -90 -90   XYZ
    dof rx rz
    limits (-90.0 90.0)
           (-45.0 45.0)
  end
  begin
     id 29
     name rfingers
     direction -1 -4.48854e-011 -6.69345e-026   
     length 0.409263   
     axis 4.27099e-014 -90 -90   XYZ
    dof rx
    limits (0.0 90.0)
  end
  begin
     id 30
     name rthumb
     direction -0.707107 -6.34913e-011 0.707107   
     length 0.587622   
     axis -90 -45 -2.85299e-015   XYZ
    dof rx rz
    limits (-45.0 45.0)
           (-45.0 45.0)
  end
:hierarchy
  begin
    root lhipjoint rhipjoint lowerback
    lhipjoint lfemur
    lfemur ltibia
    ltibia lfoot
    lfoot ltoes
    rhipjoint rfemur
    rfemur rtibia
    rtibia rfoot
    rfoot rtoes
    lowerback upperback
    upperback thorax
    thorax lowerneck lclavicle rclavicle
    lowerneck upperneck
    upperneck head
    lclavicle lhumerus
    lhumerus lradius
    lradius lwrist
    lwrist lhand lthumb
    lhand lfingers
    rclavicle rhumerus
    rhumerus rradius
    rradius rwrist
    rwrist rhand rthumb
    rhand rfingers
  end

#!OML:ASF E:\motion texture\Top Level 1\Subject 1\Session 1\male.ASF
:FULLY-SPECIFIED
:DEGREES
33
root 25.7373 17.9154 3.97117 74.9399 -81.5946 -68.7279
lowerback -0.28501 -0.571456 6.31184
upperback -0.97109 -0.901244 6.07281
thorax -0.834353 -0.555864 2.73485
lowerneck -12.1711 -4.89967 -6.52262
upperneck 10.8437 -6.15645 5.05537
head 5.6263 -2.92335 2.11733
rclavicle 1.09332e-015 -4.53229e-014
rhumerus -35.2403 -23.9077 -62.6627
rradius 18.275
rwrist 21.6567
rhand -12.1207 -26.4918
rfingers 7.12502
rthumb 13.9407 -56.0045
lclavicle 1.09332e-015 -4.53229e-014
lhumerus -38.0962 25.6967 69.2807
lradius 17.7477
lwrist -40.8895
lhand -10.0723 19.1173
lfingers 7.12502
lthumb 15.914 48.4835
rfemur -9.74653 3.18932 31.5322
rtibia 14.1032
rfoot -7.46536 -13.0605
rtoes 18.1701
lfemur -26.9791 3.33696 -6.21119
ltibia 59.1328
lfoot -6.47977 0.155009
ltoes -15.1064
34
root 25.6367 17.9164 3.95817 75.6666 -81.5741 -69.4362
lowerback -0.286957 -0.471249 6.39763
upperback -0.968417 -0.764723 5.97996
thorax -0.83314 -0.487049 2.58958
lowerneck -12.0456 -4.96543 -6.676
upperneck 10.8855 -6.2323 5.08008
head 5.62864 -2.9671 2.1448
rclavicle 1.68967e-015 -3.65764e-014
rhumerus -34.9946 -23.5184 -63.0124
rradius 18.5423
rwrist 21.0095
rhand -12.048 -26.5782
rfingers 7.12502
rthumb 14.0107 -56.086
lclavicle 1.68967e-015 -3.65764e-014
lhumerus -38.0408 24.7812 69.5389
lradius 18.2507
lwrist -39.6405
lhand -10.4579 18.9869
lfingers 7.12502
lthumb 15.5426 48.3823
rfemur -9.30218 3.2483 31.6963
rtibia 13.9402
rfoot -7.71455 -13.0547
rtoes 18.0706
lfemur -27.6171 3.41356 -6.17535
ltibia 58.2453
lfoot -7.13118 0.61845
ltoes -15.3739
35
root 25.5367 17.9169 3.94639 76.5034 -81.5618 -70.248
lowerback -0.300119 -0.370988 6.48428
upperback -0.956173 -0.630334 5.88807
thorax -0.814862 -0.418973 2.44473
lowerneck -11.9447 -5.03373 -6.84986
upperneck 10.9326 -6.30857 5.11678
head 5.63797 -3.01067 2.17875
rclavicle -1.98785e-016 -3.97569e-015
rhumerus -34.6906 -23.0501 -63.4313
rradius 18.8389
rwrist 20.2819
rhand -11.9733 -26.6749
rfingers 7.12502
rthumb 14.0827 -56.1777
lclavicle -1.98785e-016 -3.97569e-015
lhumerus -37.9762 23.9538 69.7886
lradius 18.7567
lwrist -38.4958
lhand -10.8248 18.8834
lfingers 7.12502
lthumb 15.1893 48.3059
rfemur -8.87963 3.31715 31.8507
rtibia 13.8003
rfoot -7.96391 -13.0481
rtoes 17.9413
lfemur -28.2035 3.483 -6.14278
ltibia 57.2187
lfoot -7.7293 1.15119
ltoes -15.6102
36
root 25.4375 17.9168 3.9356 77.3648 -81.5618 -71.0786
lowerback -0.315711 -0.271596 6.55793
upperback -0.944528 -0.497258 5.79497
thorax -0.794911 -0.35137 2.30599
lowerneck -11.8553 -5.10699 -7.03438
upperneck 10.9924 -6.39073 5.15977
head 5.65434 -3.057 2.21552
rclavicle -1.88845e-015 1.66979e-014
rhumerus -34.3542 -22.5042 -63.9029
rradius 19.1709
rwrist 19.48
rhand -11.8921 -26.7893
rfingers 7.12502
rthumb 14.161 -56.2867
lclavicle -1.88845e-015 1.66979e-014
lhumerus -37.9142 23.1986 70.0287
lradius 19.2623
lwrist -37.4267
lhand -11.1762 18.8243
lfingers 7.12502
lthumb 14.8507 48.2721
rfemur -8.47583 3.38359 31.9847
rtibia 13.6777
rfoot -8.21268 -13.0374
rtoes 17.7832
lfemur -28.7373 3.53233 -6.12109
ltibia 56.0552
lfoot -8.2819 1.74646
ltoes -15.8233
37
root 25.3388 17.9164 3.92569 78.2167 -81.5723 -71.8909
lowerback -0.341098 -0.175375 6.61711
upperback -0.93343 -0.369406 5.70187
thorax -0.769203 -0.286117 2.17543
lowerneck -11.7746 -5.18436 -7.21948
upperneck 11.0618 -6.47745 5.19479
head 5.67542 -3.10607 2.24917
rclavicle 2.08724e-015 -7.95139e-015
rhumerus -33.9882 -21.8726 -64.4261
rradius 19.5439
rwrist 18.6087
rhand -11.8147 -26.9309
rfingers 7.12502
rthumb 14.2356 -56.4231
lclavicle 2.08724e-015 -7.95139e-015
lhumerus -37.8568 22.5386 70.2487
lradius 19.7639
lwrist -36.4272
lhand -11.5076 18.8105
lfingers 7.12502
lthumb 14.5315 48.2816
rfemur -8.0933 3.45431 32.0999
rtibia 13.574
rfoot -8.46501 -13.0337
rtoes 17.5922
lfemur -29.2214 3.55683 -6.10847
ltibia 54.7606
lfoot -8.79697 2.40136
ltoes -16.0168
38
root 25.2407 17.9154 3.9166 79.0548 -81.5929 -72.68
lowerback -0.367946 -0.0821891 6.66183
upperback -0.925807 -0.245341 5.60698
thorax -0.745585 -0.222647 2.05125
lowerneck -11.7118 -5.26387 -7.39605
upperneck 11.1478 -6.56678 5.21899
head 5.70442 -3.15663 2.27727
rclavicle -1.39149e-015 -3.4191e-014
rhumerus -33.5998 -21.1646 -64.9933
rradius 19.957
rwrist 17.6877
rhand -11.7544 -27.1003
rfingers 7.12502
rthumb 14.2937 -56.5884
lclavicle -1.39149e-015 -3.4191e-014
lhumerus -37.8011 21.949 70.4589
lradius 20.262
lwrist -35.4595
lhand -11.8144 18.8931
lfingers 7.12502
lthumb 14.2358 48.3853
rfemur -7.73502 3.51965 32.1951
rtibia 13.4933
rfoot -8.72426 -13.0258
rtoes 17.3763
lfemur -29.6553 3.55485 -6.10299
ltibia 53.3378
lfoot -9.27274 3.11195
ltoes -16.1497
39
root 25.1432 17.914 3.90819 79.8664 -81.6223 -73.4344
lowerback -0.402537 0.0105867 6.69362
upperback -0.917636 -0.122444 5.50709
thorax -0.716442 -0.159423 1.92924
lowerneck -11.6685 -5.34646 -7.5481
upperneck 11.2451 -6.66118 5.22474
head 5.73933 -3.20968 2.2946
rclavicle 2.68359e-015 -6.12257e-014
rhumerus -33.1921 -20.391 -65.6031
rradius 20.4169
rwrist 16.7205
rhand -11.7007 -27.3423
rfingers 7.12502
rthumb 14.3454 -56.8267
lclavicle 2.68359e-015 -6.12257e-014
lhumerus -37.7338 21.4295 70.6582
lradius 20.7495
lwrist -34.5209
lhand -12.111 19.0579
lfingers 7.12502
lthumb 13.95 48.5699
rfemur -7.39708 3.58455 32.2725
rtibia 13.4308
rfoot -8.99114 -13.0192
rtoes 17.1464
lfemur -30.0335 3.52411 -6.09991
ltibia 51.7883
lfoot -9.71031 3.86434
ltoes -16.1938
40
root 25.0459 17.9121 3.90065 80.6859 -81.6635 -74.1889
lowerback -0.442462 0.103232 6.71236
upperback -0.91171 0.000165655 5.40182
thorax -0.686059 -0.0961269 1.8091
lowerneck -11.6402 -5.42733 -7.67452
upperneck 11.3514 -6.75453 5.21264
head 5.77819 -3.26224 2.30184
rclavicle 1.68967e-015 3.65764e-014
rhumerus -32.7746 -19.5585 -66.241
rradius 20.9101
rwrist 15.7376
rhand -11.6787 -27.6033
rfingers 7.12502
rthumb 14.3666 -57.0862
lclavicle 1.68967e-015 3.65764e-014
lhumerus -37.6633 20.963 70.8527
lradius 21.2299
lwrist -33.5934
lhand -12.4013 19.2954
lfingers 7.12502
lthumb 13.6702 48.8265
rfemur -7.07689 3.64267 32.3287
rtibia 13.3847
rfoot -9.26585 -13.0021
rtoes 16.9117
lfemur -30.3503 3.46542 -6.10106
ltibia 50.1109
lfoot -10.0995 4.65028
ltoes -16.1372
41
root 24.9488 17.9095 3.89393 81.5414 -81.7105 -74.9701
lowerback -0.490208 0.194367 6.72531
upperback -0.908595 0.12031 5.292
thorax -0.653701 -0.0339485 1.68774
lowerneck -11.6133 -5.50211 -7.77684
upperneck 11.4544 -6.84204 5.18966
head 5.81471 -3.31175 2.30228
rclavicle -1.03368e-014 4.6118e-014
rhumerus -32.3437 -18.6581 -66.9112
rradius 21.4323
rwrist 14.7369
rhand -11.6799 -27.897
rfingers 7.12502
rthumb 14.3655 -57.3799
lclavicle -1.03368e-014 4.6118e-014
lhumerus -37.5924 20.549 71.0395
lradius 21.7034
lwrist -32.676
lhand -12.6885 19.5625
lfingers 7.12502
lthumb 13.3934 49.112
rfemur -6.77366 3.70977 32.3732
rtibia 13.3498
rfoot -9.54319 -12.9877
rtoes 16.6795
lfemur -30.6074 3.38471 -6.09804
ltibia 48.3041
lfoot -10.4278 5.47008
ltoes -16.0348
42
root 24.8518 17.9062 3.88822 82.4346 -81.7638 -75.7794
lowerback -0.548298 0.286769 6.73298
upperback -0.907582 0.241365 5.17752
thorax -0.617161 0.0288423 1.56477
lowerneck -11.5909 -5.57343 -7.85954
upperneck 11.5549 -6.92714 5.16186
head 5.85027 -3.35955 2.29815
rclavicle 2.48481e-016 5.56597e-015
rhumerus -31.9002 -17.7022 -67.6008
rradius 21.9702
rwrist 13.7362
rhand -11.6999 -28.193
rfingers 7.12502
rthumb 14.3461 -57.6773
lclavicle 2.48481e-016 5.56597e-015
lhumerus -37.516 20.1695 71.2308
lradius 22.1714
lwrist -31.7698
lhand -12.9679 19.8261
lfingers 7.12502
lthumb 13.1242 49.3931
rfemur -6.48625 3.77283 32.4031
rtibia 13.3231
rfoot -9.82123 -12.9648
rtoes 16.4367
lfemur -30.8054 3.28027 -6.09314
ltibia 46.3683
lfoot -10.6705 6.31358
ltoes -15.8767
43
root 24.7546 17.902 3.88345 83.3675 -81.8166 -76.6186
lowerback -0.609195 0.372228 6.73967
upperback -0.913735 0.353234 5.06637
thorax -0.586175 0.0867525 1.44615
lowerneck -11.5725 -5.63322 -7.93817
upperneck 11.6542 -6.99632 5.13008
head 5.88488 -3.39971 2.29352
rclavicle 7.65321e-015 -5.1684e-014
rhumerus -31.44 -16.6591 -68.309
rradius 22.5176
rwrist 12.7277
rhand -11.7227 -28.4973
rfingers 7.12502
rthumb 14.3242 -57.9831
lclavicle 7.65321e-015 -5.1684e-014
lhumerus -37.4552 19.845 71.4181
lradius 22.6396
lwrist -30.8865
lhand -13.2078 20.0296
lfingers 7.12502
lthumb 12.8929 49.6114
rfemur -6.21169 3.8292 32.4258
rtibia 13.2995
rfoot -10.0987 -12.9363
rtoes 16.1808
lfemur -30.9491 3.15411 -6.07993
ltibia 44.3069
lfoot -10.7988 7.16583
ltoes -15.705
44
root 24.6577 17.8968 3.88002 84.4612 -81.8685 -77.6049
lowerback -0.674235 0.460374 6.75288
upperback -0.925713 0.468461 4.95612
thorax -0.558284 0.146048 1.32518
lowerneck -11.5581 -5.68607 -8.01036
upperneck 11.7457 -7.05681 5.1006
head 5.91699 -3.43514 2.28936
rclavicle -6.01324e-015 3.26007e-014
rhumerus -30.9628 -15.5469 -69.0258
rradius 23.0717
rwrist 11.7163
rhand -11.7388 -28.7918
rfingers 7.12502
rthumb 14.3087 -58.2787
lclavicle -6.01324e-015 3.26007e-014
lhumerus -37.399 19.5504 71.6148
lradius 23.1134
lwrist -30.0176
lhand -13.3945 20.2065
lfingers 7.12502
lthumb 12.7129 49.7995
rfemur -5.96423 3.87449 32.4404
rtibia 13.293
rfoot -10.3763 -12.8799
rtoes 15.9111
lfemur -31.0449 3.018 -6.05617
ltibia 42.1243
lfoot -10.7854 8.01101
ltoes -15.5148
45
root 24.5603 17.8908 3.87727 85.574 -81.9126 -78.6025
lowerback -0.743666 0.543712 6.76668
upperback -0.946303 0.577161 4.85126
thorax -0.536555 0.201692 1.20978
lowerneck -11.5403 -5.73147 -8.08022
upperneck 11.8309 -7.10793 5.07341
head 5.94594 -3.46585 2.28657
rclavicle 2.43511e-015 -2.78299e-014
rhumerus -30.4815 -14.366 -69.7377
rradius 23.638
rwrist 10.7103
rhand -11.7259 -29.0607
rfingers 7.12502
rthumb 14.3211 -58.5468
lclavicle 2.43511e-015 -2.78299e-014
lhumerus -37.3568 19.3073 71.8066
lradius 23.5878
lwrist -29.1846
lhand -13.5096 20.3156
lfingers 7.12502
lthumb 12.6019 49.9155
rfemur -5.72517 3.91502 32.4555
rtibia 13.2885
rfoot -10.6545 -12.8218
rtoes 15.6223
lfemur -31.0896 2.85572 -6.01482
ltibia 39.826
lfoot -10.6063 8.81619
ltoes -15.3174
46
root 24.4623 17.8839 3.87507 86.6896 -81.9481 -79.5967
lowerback -0.810825 0.619971 6.78024
upperback -0.976238 0.677019 4.75351
thorax -0.525663 0.252391 1.10207
lowerneck -11.5243 -5.7693 -8.15594
upperneck 11.9128 -7.14886 5.05598
head 5.97413 -3.49117 2.28874
rclavicle -5.86415e-015 -3.10104e-014
rhumerus -29.9975 -13.1136 -70.4381
rradius 24.2185
rwrist 9.69945
rhand -11.6919 -29.2831
rfingers 7.12502
rthumb 14.3538 -58.7669
lclavicle -5.86415e-015 -3.10104e-014
lhumerus -37.3273 19.1064 71.9991
lradius 24.0622
lwrist -28.3724
lhand -13.5582 20.4484
lfingers 7.12502
lthumb 12.5551 50.0512
rfemur -5.48922 3.9663 32.4746
rtibia 13.2831
rfoot -10.9337 -12.777
rtoes 15.327
lfemur -31.0822 2.66142 -5.9518
ltibia 37.4178
lfoot -10.2491 9.54973
ltoes -15.0938
47
root 24.3632 17.8762 3.87311 87.7707 -81.9744 -80.5517
lowerback -0.892193 0.690906 6.79098
upperback -1.00435 0.767886 4.66139
thorax -0.504896 0.298755 1.00205
lowerneck -11.5213 -5.80227 -8.22869
upperneck 11.9886 -7.18327 5.0456
head 6.00233 -3.51242 2.29304
rclavicle 2.18663e-015 -5.24792e-014
rhumerus -29.5052 -11.8057 -71.122
rradius 24.8335
rwrist 8.67201
rhand -11.5903 -29.5043
rfingers 7.12502
rthumb 14.4518 -58.9811
lclavicle 2.18663e-015 -5.24792e-014
lhumerus -37.2894 18.9191 72.2114
lradius 24.5452
lwrist -27.5442
lhand -13.5725 20.5682
lfingers 7.12502
lthumb 12.5413 50.1718
rfemur -5.25445 4.02104 32.4987
rtibia 13.2803
rfoot -11.2181 -12.7429
rtoes 15.0167
lfemur -31.0215 2.43176 -5.8622
ltibia 34.91
lfoot -9.72204 10.1812
ltoes -14.8393
